<svg width="24" height="23" viewBox="0 0 24 23" fill="none" xmlns="http://www.w3.org/2000/svg">
<path d="M23.5035 11.5133C23.493 11.3533 23.4391 11.1991 23.3481 11.0672C23.2568 10.9353 23.1315 10.8306 22.9858 10.7642L1.67817 0.998156H1.67797C1.45544 0.898039 1.20153 0.893906 0.975694 0.986803C0.750067 1.0797 0.572535 1.26136 0.485006 1.48926C0.397271 1.71716 0.407385 1.97107 0.512874 2.19111L5.06304 11.5687L0.512874 20.9463V20.9465C0.407388 21.1666 0.397273 21.4205 0.485006 21.6484C0.57253 21.8761 0.750061 22.0579 0.975694 22.1508C1.20153 22.2437 1.45544 22.2396 1.67797 22.1395L22.9856 12.3734H22.9858C23.1486 12.2991 23.2855 12.1771 23.3778 12.0238C23.4703 11.8702 23.514 11.6922 23.5035 11.5135V11.5133ZM18.5558 10.681H6.60724L3.19475 3.6429L18.5558 10.681ZM18.5558 12.4567L3.19443 19.4948L6.60692 12.4567H18.5558Z" fill="#2E3336"/>
</svg>
